<svg xmlns="http://www.w3.org/2000/svg" viewBox="0 0 100 100"><path d="M31.9,2.5h41.6v6.9H81v6.9h7.5v81.2h-62v-6.9H19v-6.9h-7.5V22.2l0.5-0.5l0.2-0.2l0.3-0.3l0.3-0.3l7.1-7.1l0.3-0.3l0.3-0.3 l0.3-0.3l0.3-0.3l0.3-0.3l0.3-0.3l0.3-0.3l0.3-0.3l0.3-0.3l0.3-0.3L30,3.7l0.3-0.3l0.3-0.3L30.8,3l0,0l0.4-0.4L31.9,2.5L31.9,2.5z  M81,19.4v71.2H29.6v3.8h55.8v-75H81z M73.5,12.5v71.2H22.1v3.8h55.8v-75H73.5L73.5,12.5z M21.4,71.1c-0.9,0-1.6-0.7-1.6-1.5 c0-0.9,0.7-1.5,1.6-1.5h43.3c0.9,0,1.6,0.7,1.6,1.5c0,0.9-0.7,1.5-1.6,1.5H21.4z M21.4,62.6c-0.9,0-1.6-0.7-1.6-1.5 c0-0.9,0.7-1.5,1.6-1.5h43.3c0.9,0,1.6,0.7,1.6,1.5c0,0.9-0.7,1.5-1.6,1.5H21.4z M21.4,54.1c-0.9,0-1.6-0.7-1.6-1.5 c0-0.9,0.7-1.5,1.6-1.5h43.3c0.9,0,1.6,0.7,1.6,1.5c0,0.9-0.7,1.5-1.6,1.5H21.4z M21.4,45.6c-0.9,0-1.6-0.7-1.6-1.5 c0-0.9,0.7-1.5,1.6-1.5h43.3c0.9,0,1.6,0.7,1.6,1.5c0,0.9-0.7,1.5-1.6,1.5H21.4z M21.4,37.1c-0.9,0-1.6-0.7-1.6-1.5 c0-0.9,0.7-1.5,1.6-1.5h43.3c0.9,0,1.6,0.7,1.6,1.5c0,0.9-0.7,1.5-1.6,1.5H21.4z M16.8,21.3h13.6V7.8L16.8,21.3z M33.5,5.6v17.2 c0,0.9-0.7,1.5-1.6,1.5H14.6v56.2h55.8v-75H33.5L33.5,5.6z"></path></svg>