<svg xmlns="http://www.w3.org/2000/svg" viewBox="0 0 40 40"><path d="M3,1.6h34.4v3.6c-0.5,0.7-0.9,0.8-1.7,0.7v18.9c0.7,0,1.3,0.1,1.7,0.7v3.2l-0.5,0.4L21,29.2l7.5,8.8c0.1,0.4-0.7,0.5-1,0.4 l-7-8.1v7.9l-0.3,0.2c-0.2,0.1-0.8-0.1-0.8-0.2v-7.9l-7.1,8c-0.9,0.4-1.2,0-0.6-0.8c0.9-1.2,2.2-2.6,3.2-3.7c1.3-1.5,2.7-3,3.9-4.5 H3.1c-0.2-0.2-0.4-0.5-0.4-0.8c-0.1-0.5-0.1-2.4,0-2.9c0.2-0.7,1-0.8,1.7-0.8V5.9c-0.6,0.1-1.5,0-1.7-0.6c-0.1-0.4-0.1-2.4,0-2.9 C2.7,2,2.8,1.9,3,1.6z M36.4,2.5H3.5C3.6,2.9,3.3,5,3.8,5h32.6C36.4,5,36.4,2.5,36.4,2.5z M34.8,5.9H5.2v19.1c0.1,0,0.2-0.2,0.3-0.2 h29.3C34.8,24.8,34.8,5.9,34.8,5.9z M36.4,25.8H3.5v2.6h32.8V25.8z M10.7,8.9c-1.1,0-2,0.9-2,2s0.9,2,2,2s2-0.9,2-2 S11.9,8.9,10.7,8.9z M10.7,12.2c-0.7,0-1.2-0.6-1.2-1.2s0.6-1.2,1.2-1.2S12,10.3,12,11S11.4,12.2,10.7,12.2z M16.9,15.7 c-1.1,0-2,0.9-2,2c0,1.1,0.9,2,2,2s2-0.9,2-2C19,16.6,18.1,15.7,16.9,15.7z M16.9,19c-0.7,0-1.2-0.6-1.2-1.2s0.6-1.2,1.2-1.2 c0.7,0,1.2,0.6,1.2,1.2C18.2,18.4,17.6,19,16.9,19z M23,12.8c-1.1,0-2,0.9-2,2s0.9,2,2,2c1.1,0,2-0.9,2-2S24.2,12.8,23,12.8z  M23,16.1c-0.7,0-1.2-0.6-1.2-1.2c0-0.7,0.6-1.2,1.2-1.2c0.7,0,1.2,0.6,1.2,1.2C24.3,15.5,23.7,16.1,23,16.1z M29.1,19 c-1.1,0-2,0.9-2,2s0.9,2,2,2s2-0.9,2-2S30.3,19,29.1,19z M29.1,22.3c-0.7,0-1.2-0.6-1.2-1.2s0.6-1.2,1.2-1.2s1.2,0.6,1.2,1.2 S29.8,22.3,29.1,22.3z M12,11.7l4.1,4.6l-0.6,0.6l-4.1-4.6L12,11.7z M24.4,15.5l3.9,4.3l-0.6,0.6l-3.9-4.3L24.4,15.5z M21.9,15.7 l-3.5,1.8L18,16.7l3.5-1.8L21.9,15.7z M25.8,7.7h6.6v0.9h-6.6V7.7z M28.2,9.5h4.2v0.9h-4.2V9.5z"></path></svg>