<svg xmlns="http://www.w3.org/2000/svg" viewBox="0 0 100 100"><path d="M97.3,50.3c0-7.2-4.6-13.3-11.1-15.5c6.4-2.2,11.1-8.4,11.1-15.5c0-7.2-7.4-16.4-16.4-16.4S67.6,7.4,65.3,13.8 C63.1,7.4,57,2.8,49.8,2.8S36.5,7.4,34.3,13.8C32,7.4,25.9,2.8,18.7,2.8c-7.2,0-16.4,7.4-16.4,16.4c0,9.1,4.6,13.3,11.1,15.5 C6.9,37,2.3,43.1,2.3,50.3s4.6,13.3,11.1,15.5C6.9,68,2.3,74.2,2.3,81.3c0,7.2,7.4,16.4,16.4,16.4c9.1,0,13.3-4.6,15.5-11.1 c2.2,6.4,8.4,11.1,15.5,11.1s13.3-4.6,15.5-11.1c2.2,6.4,8.4,11.1,15.5,11.1c7.2,0,16.4-7.4,16.4-16.4S92.7,68,86.2,65.8 C92.7,63.6,97.3,57.4,97.3,50.3z M80.9,4.6c8.1,0,14.6,6.6,14.6,14.6c0,8.1-6.6,14.6-14.6,14.6s-14.6-6.6-14.6-14.6 C66.2,11.2,72.8,4.6,80.9,4.6z M35.2,50.3c0-8.1,6.6-14.6,14.6-14.6s14.6,6.6,14.6,14.6s-6.6,14.6-14.6,14.6S35.2,58.3,35.2,50.3z  M49.8,4.6c8.1,0,14.6,6.6,14.6,14.6c0,8.1-6.6,14.6-14.6,14.6s-14.6-6.6-14.6-14.6C35.2,11.2,41.7,4.6,49.8,4.6z M4.1,19.2 c0-8.1,6.6-14.6,14.6-14.6c8.1,0,14.6,6.6,14.6,14.6c0,8.1-6.6,14.6-14.6,14.6C10.7,33.9,4.1,27.3,4.1,19.2z M4.1,50.3 c0-8.1,6.6-14.6,14.6-14.6c8.1,0,14.6,6.6,14.6,14.6s-6.6,14.6-14.6,14.6C10.7,64.9,4.1,58.3,4.1,50.3z M18.7,96 c-8.1,0-14.6-6.6-14.6-14.6s6.6-14.6,14.6-14.6s14.6,6.6,14.6,14.6S26.8,96,18.7,96z M49.8,96c-8.1,0-14.6-6.6-14.6-14.6 s6.6-14.6,14.6-14.6s14.6,6.6,14.6,14.6S57.9,96,49.8,96z M95.5,81.3c0,8.1-6.6,14.6-14.6,14.6c-8.1,0-14.6-6.6-14.6-14.6 s6.6-14.6,14.6-14.6C88.9,66.7,95.5,73.3,95.5,81.3z M80.9,64.9c-8.1,0-14.6-6.6-14.6-14.6s6.6-14.6,14.6-14.6s14.6,6.6,14.6,14.6 S88.9,64.9,80.9,64.9z"></path></svg>