<svg xmlns="http://www.w3.org/2000/svg" viewBox="0 0 100 100"><path d="M42.5,70L42.5,70c1.3,1.3,1.8,2.8,1.8,4.4c0,0.7-0.1,1.5-0.3,2.1c1.4,0.1,2.8,0.7,3.9,1.8l0.1,0.1c1.2,1.2,1.8,2.8,1.8,4.4 c0,0.5-0.1,1.1-0.3,1.7c1.5,0.1,3.1,0.7,4.2,1.9l0.1,0.1c1.2,1.2,1.7,2.8,1.7,4.3c0,0.9-0.1,1.8-0.5,2.6l3,2.1 c0.1,0.1,0.3,0.2,0.3,0.3c0.7,0.3,1.5,0.3,2.1,0.1c0.7-0.2,1.4-0.6,1.9-1.2c0.1-0.1,0.1-0.3,0.3-0.5v-0.1c0.4-0.9,0.5-1.8,0.3-2.6 c-0.2-0.8-0.7-1.5-1.5-2l-0.1-0.1l-3.6-2.1h-0.1l-1.3-0.8c-0.7-0.3-0.9-1.2-0.5-1.9c0.4-0.7,1.3-0.9,1.9-0.5l9.2,5.2 c0.8,0.4,1.7,0.5,2.5,0.3c0.7-0.2,1.5-0.7,1.9-1.4l0.1-0.1c0.5-0.9,0.5-1.9,0.3-2.8c-0.2-0.8-0.7-1.5-1.5-2L61,78h-0.1L59,77 c-0.7-0.4-0.9-1.2-0.5-1.9c0.4-0.7,1.3-0.9,1.9-0.5l1.8,1.1h0.1l9.2,5.3h0.1c0.7,0.4,1.4,0.4,2.1,0.3c0.9-0.3,1.9-1,2.8-1.9 c0.1-0.1,0.2-0.2,0.3-0.3c0.1-0.2,0.2-0.5,0.2-0.7v-0.1c0-0.3,0-0.5-0.1-0.8c-0.2-0.7-0.6-1.3-1.1-1.9c-0.3-0.3-0.5-0.5-0.8-0.6 L53.4,62.8l-1,0.7l-0.2,0.2c-1.2,0.8-3.7,1.5-6.3,1.3c-2.7-0.2-5.6-1.3-7.8-4c-0.2-0.2-0.4-0.5-0.5-0.7l-0.7-1.1L52,47h17.8 c3.5,0,5,1.4,6.4,2.6c0.7,0.7,1.3,1.3,2.2,1.3h4.4v-0.7c0-0.9,0.3-1.7,0.9-2.3c0.6-0.5,1.4-0.9,2.3-0.9h8.4c0.9,0,1.7,0.4,2.3,0.9 c0.6,0.6,1,1.4,1,2.3v33.5c0,0.9-0.4,1.7-1,2.3c-0.6,0.6-1.4,0.9-2.3,0.9H86c-0.9,0-1.7-0.3-2.3-0.9c-0.6-0.6-0.9-1.4-0.9-2.3v-4 h-3.3c-0.1,0.2-0.1,0.5-0.3,0.7c-0.2,0.3-0.5,0.7-0.7,0.9c-1.2,1.2-2.6,2.1-4.1,2.5L74.1,84c0.1,0.3,0.2,0.5,0.3,0.7 c0.4,1.5,0.2,3.2-0.5,4.8l-0.1,0.3c-0.9,1.5-2.2,2.3-3.7,2.7c-1.4,0.4-3,0.3-4.4-0.4c0.1,1.1-0.1,2.2-0.7,3.4l-0.1,0.1 c-0.1,0.3-0.3,0.5-0.5,0.8c-0.8,1.2-2.1,2-3.4,2.3c-1.3,0.3-2.8,0.3-4.1-0.4c-0.3-0.1-0.5-0.3-0.7-0.4l-3.1-2.2l-1.5,1.5 c-1.2,1.2-2.8,1.8-4.4,1.8s-3.3-0.6-4.5-1.8c-0.9-0.9-1.5-2.1-1.7-3.2c-1.1,0.9-2.6,1.5-4,1.5c-1.6,0-3.2-0.7-4.5-1.9 c-1.2-1.2-1.8-2.8-1.8-4.4v-0.7h-0.6c-1.6,0-3.2-0.6-4.5-1.8c-1.2-1.2-1.8-2.8-1.8-4.4c0-0.8,0.1-1.6,0.5-2.3h-7.2v4 c0,0.9-0.4,1.7-1,2.3c-0.3,0.4-1.1,0.7-2,0.7H5.8c-0.9,0-1.7-0.3-2.3-0.9s-1-1.4-1-2.3V50.3c0-0.9,0.4-1.7,1-2.3 c0.5-0.5,1.4-0.9,2.3-0.9h8.4c0.9,0,1.7,0.4,2.3,0.9c0.6,0.6,1,1.4,1,2.3V51h4.3c0.9-0.1,1.6-0.7,2.3-1.3c1.4-1.3,2.9-2.6,6.4-2.6 h10.2c0.8,0,1.5,0.6,1.5,1.4c0,0.8-0.7,1.4-1.5,1.4H30.3c-2.4,0-3.5,1.1-4.5,1.9c-1.1,1.1-2.1,2-4.1,2.1h-4.4V77H26 c-0.9-0.3-1.9-0.9-2.7-1.6c-1.2-1.3-1.8-2.8-1.8-4.4s0.6-3.2,1.8-4.4l3.5-3.5c1.2-1.2,2.8-1.7,4.3-1.7s3.2,0.6,4.5,1.8 c1.2,1.2,1.8,2.8,1.8,4.4v0.6H38C39.6,68.2,41.2,68.8,42.5,70L42.5,70z M14.1,49.8H5.8c-0.1,0-0.2,0.1-0.3,0.1 c-0.1,0.1-0.1,0.2-0.1,0.3v33.5c0,0.1,0,0.3,0.1,0.3c0.1,0.1,0.2,0.1,0.3,0.1h8.4c0.1,0,0.2-0.1,0.3-0.1c0.1-0.1,0.1-0.2,0.1-0.3 V50.3c0-0.1,0-0.3-0.1-0.3C14.3,49.9,14.3,49.8,14.1,49.8z M82.6,53.8h-4.4c-2-0.1-3-1-4.1-2.1c-1-0.9-2.1-1.9-4.5-1.9H52.9 l-12.2,9.9c1.5,1.7,3.6,2.3,5.4,2.4c2,0.1,3.7-0.3,4.5-0.8c1.7-1.3,3.7-3,5.4-4.4c0.6-0.5,1.5-0.4,2,0.2c0.5,0.6,0.4,1.5-0.3,2 l-2.1,1.7l20.6,11.7c0.5,0.3,0.9,0.7,1.3,1.1c0.9,0.9,1.5,2,1.9,3.2l0.1,0.2h3.1L82.6,53.8L82.6,53.8z M94.2,49.8h-8.4 c-0.1,0-0.3,0.1-0.3,0.1c-0.1,0.1-0.1,0.2-0.1,0.3v33.5c0,0.1,0.1,0.3,0.1,0.3c0.1,0.1,0.2,0.1,0.3,0.1h8.4c0.1,0,0.2-0.1,0.3-0.1 c0.1-0.1,0.1-0.2,0.1-0.3V50.3c0-0.1-0.1-0.3-0.1-0.3C94.4,49.9,94.4,49.8,94.2,49.8z M30.1,73.6l3.5-3.6c0.7-0.7,1-1.5,1-2.4 s-0.3-1.8-1-2.4c-0.7-0.7-1.6-1-2.5-1s-1.7,0.3-2.4,0.9l-3.5,3.5c-0.7,0.7-1,1.5-1,2.4s0.3,1.8,1,2.4c0.7,0.7,1.5,1,2.5,1 C28.6,74.4,29.5,74.1,30.1,73.6L30.1,73.6z M46.8,88.2L46.8,88.2L46.8,88.2l-1.9,1.9c-0.7,0.7-1,1.5-1,2.4s0.3,1.8,1,2.4 c0.7,0.7,1.5,1,2.5,1c0.9,0,1.7-0.3,2.4-1l1.9-1.9c0.7-0.7,1-1.5,1-2.4s-0.3-1.7-0.9-2.3l-0.1-0.1c-0.7-0.7-1.5-1-2.5-1 C48.3,87.3,47.5,87.5,46.8,88.2L46.8,88.2z M46.8,82.8c0-0.9-0.3-1.8-1-2.4c-0.7-0.7-1.5-1-2.4-1s-1.8,0.3-2.5,1l-6.2,6.2 c-0.7,0.7-1,1.5-1,2.4s0.3,1.7,1,2.4c0.7,0.7,1.6,1,2.5,1s1.7-0.3,2.5-1l3.2-3.2l0.1-0.1l2.9-3C46.5,84.5,46.8,83.6,46.8,82.8 L46.8,82.8z M40.5,72c-0.7-0.7-1.5-1-2.5-1c-0.9,0-1.7,0.3-2.4,1l-7.8,7.7c-0.7,0.7-1,1.5-1,2.4s0.3,1.8,1,2.4c0.7,0.7,1.5,1,2.5,1 c0.9,0,1.7-0.3,2.4-1l6.2-6.2l0.1-0.1l1.5-1.5c0.7-0.7,1-1.5,1-2.4C41.5,73.6,41.2,72.7,40.5,72L40.5,72z M50.7,1.5 c4.5,2.7,9.2,5.3,13.9,7.5s9.4,4.2,14.2,5.6c0.6,0.1,1,0.7,1,1.3c0,13.6-2.5,23.9-7.3,32c-0.2,0.3-0.4,0.5-0.5,0.8 c-1.3-0.4-2.4-0.6-2.4-0.6H69c0.4-0.5,0.7-1.1,1.1-1.7c4.5-7.4,6.8-16.9,6.9-29.5c-4.6-1.3-9.1-3.2-13.6-5.4C58.8,9.4,54.3,7,50,4.3 c-4.4,2.6-8.8,5.1-13.4,7.3c-4.5,2.2-9,4-13.6,5.4c0.1,12.6,2.5,22.1,6.9,29.5c0.3,0.5,0.7,1.1,1.1,1.7h-1.7 c-0.6,0.1-1.1,0.1-1.5,0.2L27.5,48c-4.8-8.1-7.3-18.4-7.3-32c0-0.7,0.5-1.3,1.1-1.4c4.7-1.4,9.4-3.2,14.1-5.5 c4.7-2.2,9.4-4.8,13.9-7.6C49.7,1.2,50.3,1.2,50.7,1.5L50.7,1.5z M47.9,29.9l8.7-9.9c0.9-1,2.1-1.5,3.3-1.6c1.3-0.1,2.5,0.3,3.5,1.1 l0.1,0.1c0.9,0.9,1.5,2.1,1.5,3.2c0.1,1.2-0.3,2.4-1.2,3.4c-3.9,4.6-8.2,9-12,13.6c-0.9,1-2.1,1.5-3.3,1.5C47.2,41.4,46,41,45,40 c-2.5-2.2-5.2-5-7.8-7.1c-0.9-0.9-1.5-2.1-1.5-3.2c0-1.3,0.4-2.4,1.3-3.4l0.1-0.1c0.9-0.9,2.1-1.5,3.3-1.5c1.2-0.1,2.5,0.3,3.4,1.2 L47.9,29.9L47.9,29.9z M58.8,21.8l-10.6,12c-2-1.8-4.6-3.8-6.3-5.6c-0.4-0.4-0.9-0.5-1.5-0.5c-0.5,0-1,0.2-1.4,0.6v0.1 c-0.3,0.4-0.5,0.9-0.5,1.4s0.2,1,0.6,1.4c1.5,1.3,6.7,6.4,7.8,7c0.4,0.4,0.9,0.5,1.4,0.5s1-0.3,1.4-0.7l12-13.6 c0.3-0.4,0.5-0.9,0.5-1.4c-0.1-0.5-0.3-1.1-0.7-1.4l-0.1-0.1C61,21.2,60.5,21,60,21.1C59.6,21.2,59.1,21.4,58.8,21.8L58.8,21.8z"></path></svg>